<svg fill="none" height="24" viewBox="0 0 24 24" width="24" xmlns="http://www.w3.org/2000/svg"><g stroke="#292d32" stroke-linecap="round" stroke-linejoin="round"><path d="m22 10v3c0 4-2 6-6 6h-.5c-.31 0-.61.15-.8.4l-1.5 2c-.66.88-1.74.88-2.4 0l-1.5-2c-.16-.22-.53-.4-.8-.4h-.5c-4 0-6-1-6-6v-5c0-4 2-6 6-6h6" stroke-miterlimit="10" stroke-width="1.5"/><path d="m19.5 7c1.3807 0 2.5-1.11929 2.5-2.5s-1.1193-2.5-2.5-2.5-2.5 1.11929-2.5 2.5 1.1193 2.5 2.5 2.5z" stroke-width="1.5"/><g stroke-width="2"><path d="m15.9965 11h.0089"/><path d="m11.9955 11h.009"/><path d="m7.99451 11h.00898"/></g></g></svg>